:FULLY-SPECIFIED
:FORCE-ALL-JOINTS-BE-3DOF
:DEGREES
68
root 5.9749 16.7549 -28.021 10.9785 3.05435 -3.94778
lfemur -34.9221 14.6172 -17.2105
ltibia 51.7048 0 0
lfoot -20.9004 -11.0635 0
ltoes 32.0399 0 0
rfemur -16.253 -1.53457 22.2052
rtibia 29.249 0 0
rfoot -28.3578 -17.8755 0
rtoes -9.25137 0 0
lowerback -3.66351 2.54292 3.46525
upperback -1.45179 3.27436 -0.229258
thorax 0.759234 1.63197 -2.03667
lowerneck -9.96549 -2.54167 2.17396
upperneck -5.55919 -3.53829 2.12679
head -0.089374 -1.78395 0.197798
lclavicle 2.16607e-14 8.27208e-15 0
lhumerus -40.6716 -12.4373 93.8608
lradius 44.1636 0 0
lwrist 7.86332 0 0
lhand -11.1993 2.27593 0
lfingers 7.12502 0 0
lthumb 14.8299 31.7409 0
rclavicle 2.16607e-14 8.27208e-15 0
rhumerus -39.3373 1.65425 -91.9876
rradius 42.7318 0 0
rwrist 7.04439 0 0
rhand -24.4995 -21.9821 0
rfingers 7.12502 0 0
rthumb 1.99485 -51.9511 0
69
root 5.9982 16.7513 -27.9878 11.0025 3.1135 -4.11825
lfemur -35.2962 14.5328 -16.7708
ltibia 51.6063 0 0
lfoot -20.6576 -10.2938 0
ltoes 31.3215 0 0
rfemur -15.7926 -1.78778 22.4419
rtibia 28.6428 0 0
rfoot -28.8604 -18.0193 0
rtoes -9.58126 0 0
lowerback -3.64945 2.63306 3.52074
upperback -1.48677 3.39487 -0.191743
thorax 0.720671 1.69113 -2.02736
lowerneck -9.98738 -2.60768 2.23494
upperneck -5.59126 -3.63214 2.10064
head -0.0985966 -1.83206 0.177719
lclavicle 2.09848e-14 8.87657e-15 0
lhumerus -40.7794 -12.1798 93.6919
lradius 44.2148 0 0
lwrist 7.92917 0 0
lhand -11.2133 2.2433 0
lfingers 7.12502 0 0
lthumb 14.817 31.7169 0
rclavicle 2.09848e-14 8.87657e-15 0
rhumerus -39.1978 1.79989 -91.9651
rradius 42.8408 0 0
rwrist 7.0268 0 0
rhand -24.3544 -21.9403 0
rfingers 7.12502 0 0
rthumb 2.13504 -51.9075 0
70
root 6.02149 16.7477 -27.9547 11.027 3.16172 -4.297
lfemur -35.6559 14.3991 -16.3023
ltibia 51.4421 0 0
lfoot -20.4413 -9.40792 0
ltoes 30.5523 0 0
rfemur -15.2923 -2.03711 22.692
rtibia 27.9822 0 0
rfoot -29.4084 -18.182 0
rtoes -9.87721 0 0
lowerback -3.64185 2.73022 3.56963
upperback -1.5258 3.52513 -0.150218
thorax 0.681345 1.75509 -2.00984
lowerneck -10.0096 -2.67576 2.30381
upperneck -5.6182 -3.72971 2.06956
head -0.106439 -1.8821 0.154737
lclavicle 2.0174e-14 9.52716e-15 0
lhumerus -40.8982 -11.9026 93.5167
lradius 44.2577 0 0
lwrist 7.99618 0 0
lhand -11.2328 2.21075 0
lfingers 7.12502 0 0
lthumb 14.799 31.6939 0
rclavicle 2.0174e-14 9.52716e-15 0
rhumerus -39.0487 1.93616 -91.9361
rradius 42.946 0 0
rwrist 7.0205 0 0
rhand -24.2042 -21.8902 0
rfingers 7.12502 0 0
rthumb 2.28012 -51.8555 0
71
root 6.04479 16.7441 -27.9215 11.05 3.20177 -4.48155
lfemur -35.9984 14.22 -15.8109
ltibia 51.2188 0 0
lfoot -20.2491 -8.42592 0
ltoes 29.7428 0 0
rfemur -14.7652 -2.28188 22.9482
rtibia 27.2898 0 0
rfoot -29.9808 -18.3528 0
rtoes -10.1361 0 0
lowerback -3.63869 2.83257 3.61169
upperback -1.56788 3.66269 -0.10505
thorax 0.641091 1.82263 -1.98444
lowerneck -10.032 -2.74561 2.3791
upperneck -5.6395 -3.83044 2.03412
head -0.112703 -1.93376 0.129262
lclavicle 1.92448e-14 1.02116e-14 0
lhumerus -41.027 -11.6098 93.3371
lradius 44.2939 0 0
lwrist 8.06511 0 0
lhand -11.2531 2.17976 0
lfingers 7.12502 0 0
lthumb 14.7801 31.673 0
rclavicle 1.92448e-14 1.02116e-14 0
rhumerus -38.8929 2.0632 -91.8973
rradius 43.0486 0 0
rwrist 7.02352 0 0
rhand -24.0501 -21.8322 0
rfingers 7.12502 0 0
rthumb 2.42886 -51.7956 0
72
root 6.06809 16.7405 -27.8883 11.0695 3.23638 -4.66944
lfemur -36.3208 13.9994 -15.3029
ltibia 50.9432 0 0
lfoot -20.0787 -7.36794 0
ltoes 28.9035 0 0
rfemur -14.2246 -2.5214 23.203
rtibia 26.5883 0 0
rfoot -30.5564 -18.5205 0
rtoes -10.3548 0 0
lowerback -3.63793 2.93829 3.64669
upperback -1.61202 3.80508 -0.0566079
thorax 0.599739 1.89255 -1.95152
lowerneck -10.0546 -2.81691 2.45934
upperneck -5.65465 -3.93377 1.99492
head -0.117188 -1.98674 0.101704
lclavicle 1.82139e-14 1.09177e-14 0
lhumerus -41.1648 -11.3055 93.1554
lradius 44.3251 0 0
lwrist 8.1367 0 0
lhand -11.2699 2.15182 0
lfingers 7.12502 0 0
lthumb 14.7647 31.6548 0
rclavicle 1.82139e-14 1.09177e-14 0
rhumerus -38.7333 2.1811 -91.8453
rradius 43.1497 0 0
rwrist 7.03392 0 0
rhand -23.8936 -21.7665 0
rfingers 7.12502 0 0
rthumb 2.58006 -51.7278 0
73
root 6.09138 16.7369 -27.8551 11.0835 3.2683 -4.85819
lfemur -36.6201 13.7411 -14.7843
ltibia 50.6219 0 0
lfoot -19.9275 -6.25411 0
ltoes 28.0447 0 0
rfemur -13.6836 -2.75498 23.4491
rtibia 25.9004 0 0
rfoot -31.1142 -18.6743 0
rtoes -10.5302 0 0
lowerback -3.63757 3.04555 3.67439
upperback -1.65722 3.94985 -0.00525722
thorax 0.557122 1.96364 -1.91144
lowerneck -10.0773 -2.88935 2.54305
upperneck -5.66317 -4.03913 1.95255
head -0.119696 -2.04071 0.0724767
lclavicle 1.70977e-14 1.16332e-14 0
lhumerus -41.3103 -10.9938 92.9735
lradius 44.3531 0 0
lwrist 8.21168 0 0
lhand -11.2787 2.12839 0
lfingers 7.12502 0 0
lthumb 14.7569 31.6402 0
rclavicle 1.70977e-14 1.16332e-14 0
rhumerus -38.5728 2.29 -91.7771
rradius 43.2505 0 0
rwrist 7.04974 0 0
rhand -23.7357 -21.6933 0
rfingers 7.12502 0 0
rthumb 2.73252 -51.6525 0
